<svg version="1.2" xmlns="http://www.w3.org/2000/svg" viewBox="0 0 1000 1000" width="1000" height="1000">
	<title>logo-svg</title>
	<style>
		.s0 { fill: #f9f9f9 } 
		.s1 { fill: #222222 } 
	</style>
	<g>
		<path class="s0" d="m256 631c-72.4 0-131-58.6-131-131 0-72.4 58.6-131 131-131 72.4 0 131 58.6 131 131 0 72.4-58.6 131-131 131z"/>
		<path class="s1" d="m266.3 441.1v47.2h45.2v19.5h-45.2v51.1h-20.6v-51.1h-45.2v-19.5h45.2v-47.2z"/>
		<path fill-rule="evenodd" class="s0" d="m508.9 442.5l-44.7 116.4h-11.7l44.8-116.4zm56.2 65.3h-25.2v42h-14.2v-107.3h39.6q17.6 0 27.6 9 10 9 10 23.8 0 15.6-9.8 24.1-9.7 8.4-28 8.4zm-25.2-53.6v42h25.4q11.3 0 17.4-5.3 6-5.4 6-15.5 0-9.5-6-15.3-6.1-5.7-16.6-5.9zm142.3-11.7h14.2v72.9q0 15.2-9.5 24.8-9.5 9.7-25.7 10.9l-3.7 0.1q-17.6 0-28.1-9.5-10.5-9.5-10.6-26.1v-73.1h14v72.6q0 11.7 6.4 18.1 6.4 6.5 18.3 6.5 12 0 18.3-6.5 6.4-6.3 6.4-18zm68.1 59.4q-18.2-5.2-26.4-12.8-8.3-7.6-8.3-18.8 0-12.7 10.1-21 10.1-8.3 26.3-8.3 11.1 0 19.7 4.3 8.7 4.3 13.4 11.8 4.8 7.5 4.8 16.4h-14.2q0-9.7-6.2-15.3-6.2-5.5-17.5-5.5-10.4 0-16.3 4.6-5.9 4.6-5.9 12.8 0 6.5 5.6 11 5.6 4.6 18.9 8.3 13.4 3.8 21 8.3 7.5 4.5 11.2 10.6 3.6 6 3.6 14.2 0 13-10.2 20.9-10.1 7.8-27.2 7.8-11 0-20.6-4.2-9.5-4.3-14.7-11.6-5.2-7.4-5.2-16.7h14.2q0 9.7 7.2 15.3 7.1 5.6 19.1 5.6 11.3 0 17.2-4.5 6-4.6 6-12.5 0-7.8-5.5-12.2-5.6-4.3-20.1-8.5zm94.8-41v31.3h29.9v12.9h-29.9v33.9h-13.7v-33.9h-29.9v-12.9h29.9v-31.3z"/>
	</g>
</svg>